<mxfile host="app.diagrams.net" modified="2021-06-15T11:48:21.649Z" agent="5.0 (Windows NT 10.0; Win64; x64) AppleWebKit/537.36 (KHTML, like Gecko) Chrome/91.0.4472.101 Safari/537.36" etag="tGB5Xnv0Gi3wQnBintY2" version="14.7.6" type="github">
  <diagram id="-XQVmP164iIxbpDRxiDr" name="第 1 页">
    <mxGraphModel dx="1038" dy="579" grid="1" gridSize="10" guides="1" tooltips="1" connect="1" arrows="1" fold="1" page="1" pageScale="1" pageWidth="1169" pageHeight="827" math="0" shadow="0">
      <root>
        <mxCell id="0" />
        <mxCell id="1" parent="0" />
        <mxCell id="LHCKISDICAmvEoplOuZN-1" value="" style="rounded=1;whiteSpace=wrap;html=1;labelBackgroundColor=#ffffff;fontSize=12;dashed=1;fillColor=#CCFFE6;" vertex="1" parent="1">
          <mxGeometry x="1670" y="899" width="250" height="130" as="geometry" />
        </mxCell>
        <mxCell id="LHCKISDICAmvEoplOuZN-3" value="" style="rounded=1;whiteSpace=wrap;html=1;labelBackgroundColor=none;fontSize=12;dashed=1;fillColor=#CCFFE6;" vertex="1" parent="1">
          <mxGeometry x="60" y="914" width="250" height="155" as="geometry" />
        </mxCell>
        <mxCell id="LHCKISDICAmvEoplOuZN-4" value="" style="rounded=1;whiteSpace=wrap;html=1;labelBackgroundColor=#CCFFE6;fontSize=12;dashed=1;fillColor=#CCFFE6;" vertex="1" parent="1">
          <mxGeometry x="270" y="1146" width="250" height="130" as="geometry" />
        </mxCell>
        <mxCell id="LHCKISDICAmvEoplOuZN-5" value="" style="rounded=1;whiteSpace=wrap;html=1;labelBackgroundColor=#ffffff;fontSize=12;dashed=1;fillColor=#CCFFE6;" vertex="1" parent="1">
          <mxGeometry x="587" y="1146" width="250" height="130" as="geometry" />
        </mxCell>
        <mxCell id="LHCKISDICAmvEoplOuZN-6" value="" style="rounded=1;whiteSpace=wrap;html=1;labelBackgroundColor=#ffffff;fontSize=12;dashed=1;fillColor=#CCFFE6;" vertex="1" parent="1">
          <mxGeometry x="900" y="1142.5" width="250" height="130" as="geometry" />
        </mxCell>
        <mxCell id="LHCKISDICAmvEoplOuZN-7" value="" style="rounded=1;whiteSpace=wrap;html=1;labelBackgroundColor=#ffffff;fontSize=12;dashed=1;fillColor=#CCFFE6;" vertex="1" parent="1">
          <mxGeometry x="1210" y="1141" width="250" height="130" as="geometry" />
        </mxCell>
        <mxCell id="LHCKISDICAmvEoplOuZN-8" style="edgeStyle=orthogonalEdgeStyle;rounded=1;orthogonalLoop=1;jettySize=auto;html=1;entryX=0;entryY=0.5;entryDx=0;entryDy=0;entryPerimeter=0;strokeWidth=3;" edge="1" parent="1" source="LHCKISDICAmvEoplOuZN-9" target="LHCKISDICAmvEoplOuZN-17">
          <mxGeometry relative="1" as="geometry">
            <mxPoint x="760" y="120.3" as="targetPoint" />
          </mxGeometry>
        </mxCell>
        <mxCell id="LHCKISDICAmvEoplOuZN-9" value="&lt;b&gt;客户端浏览器&lt;/b&gt;" style="dashed=0;outlineConnect=0;html=1;align=center;labelPosition=center;verticalLabelPosition=bottom;verticalAlign=top;shape=mxgraph.weblogos.chrome" vertex="1" parent="1">
          <mxGeometry x="470" y="90" width="80" height="80" as="geometry" />
        </mxCell>
        <mxCell id="LHCKISDICAmvEoplOuZN-10" style="edgeStyle=orthogonalEdgeStyle;rounded=1;orthogonalLoop=1;jettySize=auto;html=1;strokeWidth=3;entryX=0.5;entryY=0;entryDx=0;entryDy=0;" edge="1" parent="1" target="LHCKISDICAmvEoplOuZN-141">
          <mxGeometry relative="1" as="geometry">
            <mxPoint x="790" y="160.29999999999995" as="sourcePoint" />
          </mxGeometry>
        </mxCell>
        <mxCell id="LHCKISDICAmvEoplOuZN-11" style="edgeStyle=orthogonalEdgeStyle;rounded=0;orthogonalLoop=1;jettySize=auto;html=1;strokeWidth=3;entryX=0.5;entryY=0;entryDx=0;entryDy=0;entryPerimeter=0;" edge="1" parent="1" source="LHCKISDICAmvEoplOuZN-12" target="LHCKISDICAmvEoplOuZN-40">
          <mxGeometry relative="1" as="geometry">
            <mxPoint x="780" y="701.3" as="targetPoint" />
          </mxGeometry>
        </mxCell>
        <mxCell id="LHCKISDICAmvEoplOuZN-12" value="&lt;b&gt;labeltask-front&lt;/b&gt;" style="aspect=fixed;perimeter=ellipsePerimeter;html=1;align=center;shadow=0;dashed=0;fontColor=#4277BB;labelBackgroundColor=#ffffff;fontSize=12;spacingTop=3;image;image=img/lib/ibm/infrastructure/channels.svg;" vertex="1" parent="1">
          <mxGeometry x="970" y="690" width="80" height="80" as="geometry" />
        </mxCell>
        <mxCell id="LHCKISDICAmvEoplOuZN-13" style="edgeStyle=orthogonalEdgeStyle;rounded=1;orthogonalLoop=1;jettySize=auto;html=1;entryX=0.5;entryY=0;entryDx=0;entryDy=0;entryPerimeter=0;strokeWidth=3;fontSize=13;exitX=0.5;exitY=1;exitDx=0;exitDy=0;exitPerimeter=0;" edge="1" parent="1" source="LHCKISDICAmvEoplOuZN-16" target="LHCKISDICAmvEoplOuZN-28">
          <mxGeometry relative="1" as="geometry" />
        </mxCell>
        <mxCell id="LHCKISDICAmvEoplOuZN-14" style="edgeStyle=orthogonalEdgeStyle;rounded=1;orthogonalLoop=1;jettySize=auto;html=1;exitX=0.5;exitY=1;exitDx=0;exitDy=0;exitPerimeter=0;entryX=0.5;entryY=0;entryDx=0;entryDy=0;entryPerimeter=0;strokeWidth=3;fontSize=15;" edge="1" parent="1" source="LHCKISDICAmvEoplOuZN-16" target="LHCKISDICAmvEoplOuZN-30">
          <mxGeometry relative="1" as="geometry" />
        </mxCell>
        <mxCell id="LHCKISDICAmvEoplOuZN-15" style="edgeStyle=orthogonalEdgeStyle;rounded=1;orthogonalLoop=1;jettySize=auto;html=1;exitX=0.5;exitY=1;exitDx=0;exitDy=0;exitPerimeter=0;entryX=0.5;entryY=0;entryDx=0;entryDy=0;entryPerimeter=0;strokeWidth=3;fontSize=15;" edge="1" parent="1" source="LHCKISDICAmvEoplOuZN-16" target="LHCKISDICAmvEoplOuZN-32">
          <mxGeometry relative="1" as="geometry" />
        </mxCell>
        <mxCell id="LHCKISDICAmvEoplOuZN-16" value="&lt;span style=&quot;color: rgb(66, 119, 187);&quot;&gt;&lt;b&gt;labeltask-control&lt;/b&gt;&lt;/span&gt;" style="points=[[0,0,0],[0.25,0,0],[0.5,0,0],[0.75,0,0],[1,0,0],[0,1,0],[0.25,1,0],[0.5,1,0],[0.75,1,0],[1,1,0],[0,0.25,0],[0,0.5,0],[0,0.75,0],[1,0.25,0],[1,0.5,0],[1,0.75,0]];outlineConnect=0;fontColor=#232F3E;gradientColor=#F78E04;gradientDirection=north;fillColor=#D05C17;strokeColor=#ffffff;dashed=0;verticalLabelPosition=bottom;verticalAlign=top;align=center;html=1;fontSize=12;fontStyle=0;aspect=fixed;shape=mxgraph.aws4.resourceIcon;resIcon=mxgraph.aws4.ecs;labelBackgroundColor=#ffffff;" vertex="1" parent="1">
          <mxGeometry x="530" y="841.3" width="80" height="80" as="geometry" />
        </mxCell>
        <mxCell id="LHCKISDICAmvEoplOuZN-17" value="&lt;b&gt;防火墙&lt;/b&gt;" style="points=[[0,0,0],[0.25,0,0],[0.5,0,0],[0.75,0,0],[1,0,0],[0,1,0],[0.25,1,0],[0.5,1,0],[0.75,1,0],[1,1,0],[0,0.25,0],[0,0.5,0],[0,0.75,0],[1,0.25,0],[1,0.5,0],[1,0.75,0]];outlineConnect=0;fontColor=#232F3E;gradientColor=#F54749;gradientDirection=north;fillColor=#C7131F;strokeColor=#ffffff;dashed=0;verticalLabelPosition=bottom;verticalAlign=top;align=center;html=1;fontSize=12;fontStyle=0;aspect=fixed;shape=mxgraph.aws4.resourceIcon;resIcon=mxgraph.aws4.firewall_manager;labelBackgroundColor=#ffffff;" vertex="1" parent="1">
          <mxGeometry x="751" y="90" width="80" height="80" as="geometry" />
        </mxCell>
        <mxCell id="LHCKISDICAmvEoplOuZN-18" style="edgeStyle=orthogonalEdgeStyle;rounded=1;orthogonalLoop=1;jettySize=auto;html=1;exitX=0.5;exitY=1;exitDx=0;exitDy=0;exitPerimeter=0;entryX=0.5;entryY=0;entryDx=0;entryDy=0;entryPerimeter=0;strokeWidth=3;fontSize=13;" edge="1" parent="1" source="LHCKISDICAmvEoplOuZN-21" target="LHCKISDICAmvEoplOuZN-32">
          <mxGeometry relative="1" as="geometry">
            <Array as="points">
              <mxPoint x="782" y="957" />
              <mxPoint x="820" y="957" />
            </Array>
          </mxGeometry>
        </mxCell>
        <mxCell id="LHCKISDICAmvEoplOuZN-19" style="edgeStyle=orthogonalEdgeStyle;rounded=1;orthogonalLoop=1;jettySize=auto;html=1;exitX=0.5;exitY=1;exitDx=0;exitDy=0;exitPerimeter=0;strokeWidth=3;fontSize=13;" edge="1" parent="1" source="LHCKISDICAmvEoplOuZN-21" target="LHCKISDICAmvEoplOuZN-30">
          <mxGeometry relative="1" as="geometry" />
        </mxCell>
        <mxCell id="LHCKISDICAmvEoplOuZN-20" style="edgeStyle=orthogonalEdgeStyle;rounded=1;orthogonalLoop=1;jettySize=auto;html=1;exitX=0.5;exitY=1;exitDx=0;exitDy=0;exitPerimeter=0;strokeWidth=3;fontSize=13;" edge="1" parent="1" source="LHCKISDICAmvEoplOuZN-21" target="LHCKISDICAmvEoplOuZN-34">
          <mxGeometry relative="1" as="geometry" />
        </mxCell>
        <mxCell id="LHCKISDICAmvEoplOuZN-21" value="&lt;span style=&quot;color: rgb(66, 119, 187);&quot;&gt;&lt;b&gt;labeladmin-control&lt;/b&gt;&lt;/span&gt;" style="points=[[0,0,0],[0.25,0,0],[0.5,0,0],[0.75,0,0],[1,0,0],[0,1,0],[0.25,1,0],[0.5,1,0],[0.75,1,0],[1,1,0],[0,0.25,0],[0,0.5,0],[0,0.75,0],[1,0.25,0],[1,0.5,0],[1,0.75,0]];outlineConnect=0;fontColor=#232F3E;gradientColor=#F78E04;gradientDirection=north;fillColor=#D05C17;strokeColor=#ffffff;dashed=0;verticalLabelPosition=bottom;verticalAlign=top;align=center;html=1;fontSize=12;fontStyle=0;aspect=fixed;shape=mxgraph.aws4.resourceIcon;resIcon=mxgraph.aws4.ecs;labelBackgroundColor=#ffffff;" vertex="1" parent="1">
          <mxGeometry x="742" y="841.3" width="80" height="80" as="geometry" />
        </mxCell>
        <mxCell id="LHCKISDICAmvEoplOuZN-22" style="edgeStyle=orthogonalEdgeStyle;rounded=1;orthogonalLoop=1;jettySize=auto;html=1;exitX=0.5;exitY=1;exitDx=0;exitDy=0;exitPerimeter=0;strokeWidth=3;fontSize=13;" edge="1" parent="1" source="LHCKISDICAmvEoplOuZN-24" target="LHCKISDICAmvEoplOuZN-36">
          <mxGeometry relative="1" as="geometry" />
        </mxCell>
        <mxCell id="LHCKISDICAmvEoplOuZN-23" style="edgeStyle=orthogonalEdgeStyle;rounded=1;orthogonalLoop=1;jettySize=auto;html=1;exitX=0.5;exitY=1;exitDx=0;exitDy=0;exitPerimeter=0;strokeWidth=3;fontSize=15;" edge="1" parent="1" source="LHCKISDICAmvEoplOuZN-24" target="LHCKISDICAmvEoplOuZN-32">
          <mxGeometry relative="1" as="geometry" />
        </mxCell>
        <mxCell id="LHCKISDICAmvEoplOuZN-24" value="&lt;span style=&quot;color: rgb(66, 119, 187);&quot;&gt;&lt;b&gt;crowd-template-control&lt;/b&gt;&lt;/span&gt;" style="points=[[0,0,0],[0.25,0,0],[0.5,0,0],[0.75,0,0],[1,0,0],[0,1,0],[0.25,1,0],[0.5,1,0],[0.75,1,0],[1,1,0],[0,0.25,0],[0,0.5,0],[0,0.75,0],[1,0.25,0],[1,0.5,0],[1,0.75,0]];outlineConnect=0;fontColor=#232F3E;gradientColor=#F78E04;gradientDirection=north;fillColor=#D05C17;strokeColor=#ffffff;dashed=0;verticalLabelPosition=bottom;verticalAlign=top;align=center;html=1;fontSize=12;fontStyle=0;aspect=fixed;shape=mxgraph.aws4.resourceIcon;resIcon=mxgraph.aws4.ecs;labelBackgroundColor=#ffffff;" vertex="1" parent="1">
          <mxGeometry x="970" y="841.3" width="80" height="80" as="geometry" />
        </mxCell>
        <mxCell id="LHCKISDICAmvEoplOuZN-25" style="edgeStyle=orthogonalEdgeStyle;rounded=1;orthogonalLoop=1;jettySize=auto;html=1;exitX=0.5;exitY=1;exitDx=0;exitDy=0;exitPerimeter=0;entryX=0.5;entryY=0;entryDx=0;entryDy=0;strokeWidth=3;fontSize=12;" edge="1" parent="1" source="LHCKISDICAmvEoplOuZN-28" target="LHCKISDICAmvEoplOuZN-4">
          <mxGeometry relative="1" as="geometry" />
        </mxCell>
        <mxCell id="LHCKISDICAmvEoplOuZN-26" style="edgeStyle=orthogonalEdgeStyle;rounded=1;orthogonalLoop=1;jettySize=auto;html=1;exitX=0.5;exitY=1;exitDx=0;exitDy=0;exitPerimeter=0;entryX=0.5;entryY=0;entryDx=0;entryDy=0;strokeWidth=3;fontSize=12;" edge="1" parent="1" source="LHCKISDICAmvEoplOuZN-28" target="LHCKISDICAmvEoplOuZN-5">
          <mxGeometry relative="1" as="geometry" />
        </mxCell>
        <mxCell id="LHCKISDICAmvEoplOuZN-27" style="edgeStyle=orthogonalEdgeStyle;rounded=1;orthogonalLoop=1;jettySize=auto;html=1;exitX=0.5;exitY=1;exitDx=0;exitDy=0;exitPerimeter=0;entryX=0.5;entryY=0;entryDx=0;entryDy=0;strokeWidth=3;fontSize=12;" edge="1" parent="1" source="LHCKISDICAmvEoplOuZN-28" target="LHCKISDICAmvEoplOuZN-6">
          <mxGeometry relative="1" as="geometry" />
        </mxCell>
        <mxCell id="LHCKISDICAmvEoplOuZN-28" value="&lt;span style=&quot;color: rgb(66, 119, 187);&quot;&gt;&lt;b&gt;labeltask-core&lt;/b&gt;&lt;/span&gt;" style="points=[[0,0,0],[0.25,0,0],[0.5,0,0],[0.75,0,0],[1,0,0],[0,1,0],[0.25,1,0],[0.5,1,0],[0.75,1,0],[1,1,0],[0,0.25,0],[0,0.5,0],[0,0.75,0],[1,0.25,0],[1,0.5,0],[1,0.75,0]];outlineConnect=0;fontColor=#232F3E;gradientColor=#F78E04;gradientDirection=north;fillColor=#D05C17;strokeColor=#ffffff;dashed=0;verticalLabelPosition=bottom;verticalAlign=top;align=center;html=1;fontSize=12;fontStyle=0;aspect=fixed;shape=mxgraph.aws4.resourceIcon;resIcon=mxgraph.aws4.ecs;labelBackgroundColor=#ffffff;" vertex="1" parent="1">
          <mxGeometry x="410" y="992.3" width="80" height="80" as="geometry" />
        </mxCell>
        <mxCell id="LHCKISDICAmvEoplOuZN-29" style="edgeStyle=orthogonalEdgeStyle;rounded=1;orthogonalLoop=1;jettySize=auto;html=1;exitX=0.5;exitY=1;exitDx=0;exitDy=0;exitPerimeter=0;entryX=0.5;entryY=0;entryDx=0;entryDy=0;strokeWidth=3;fontSize=12;" edge="1" parent="1" source="LHCKISDICAmvEoplOuZN-30" target="LHCKISDICAmvEoplOuZN-6">
          <mxGeometry relative="1" as="geometry" />
        </mxCell>
        <mxCell id="LHCKISDICAmvEoplOuZN-30" value="&lt;span style=&quot;color: rgb(66, 119, 187);&quot;&gt;&lt;b&gt;labelqueue-core&lt;/b&gt;&lt;/span&gt;" style="points=[[0,0,0],[0.25,0,0],[0.5,0,0],[0.75,0,0],[1,0,0],[0,1,0],[0.25,1,0],[0.5,1,0],[0.75,1,0],[1,1,0],[0,0.25,0],[0,0.5,0],[0,0.75,0],[1,0.25,0],[1,0.5,0],[1,0.75,0]];outlineConnect=0;fontColor=#232F3E;gradientColor=#F78E04;gradientDirection=north;fillColor=#D05C17;strokeColor=#ffffff;dashed=0;verticalLabelPosition=bottom;verticalAlign=top;align=center;html=1;fontSize=12;fontStyle=0;aspect=fixed;shape=mxgraph.aws4.resourceIcon;resIcon=mxgraph.aws4.ecs;labelBackgroundColor=#ffffff;" vertex="1" parent="1">
          <mxGeometry x="590" y="992.3" width="80" height="80" as="geometry" />
        </mxCell>
        <mxCell id="LHCKISDICAmvEoplOuZN-31" style="edgeStyle=orthogonalEdgeStyle;rounded=1;orthogonalLoop=1;jettySize=auto;html=1;exitX=0.5;exitY=1;exitDx=0;exitDy=0;exitPerimeter=0;entryX=0.5;entryY=0;entryDx=0;entryDy=0;strokeWidth=3;fontSize=12;" edge="1" parent="1" source="LHCKISDICAmvEoplOuZN-32" target="LHCKISDICAmvEoplOuZN-6">
          <mxGeometry relative="1" as="geometry" />
        </mxCell>
        <mxCell id="LHCKISDICAmvEoplOuZN-32" value="&lt;span style=&quot;color: rgb(66, 119, 187);&quot;&gt;&lt;b&gt;labelworkload-core&lt;/b&gt;&lt;/span&gt;" style="points=[[0,0,0],[0.25,0,0],[0.5,0,0],[0.75,0,0],[1,0,0],[0,1,0],[0.25,1,0],[0.5,1,0],[0.75,1,0],[1,1,0],[0,0.25,0],[0,0.5,0],[0,0.75,0],[1,0.25,0],[1,0.5,0],[1,0.75,0]];outlineConnect=0;fontColor=#232F3E;gradientColor=#F78E04;gradientDirection=north;fillColor=#D05C17;strokeColor=#ffffff;dashed=0;verticalLabelPosition=bottom;verticalAlign=top;align=center;html=1;fontSize=12;fontStyle=0;aspect=fixed;shape=mxgraph.aws4.resourceIcon;resIcon=mxgraph.aws4.ecs;labelBackgroundColor=#ffffff;" vertex="1" parent="1">
          <mxGeometry x="780" y="992.3" width="80" height="80" as="geometry" />
        </mxCell>
        <mxCell id="LHCKISDICAmvEoplOuZN-33" style="edgeStyle=orthogonalEdgeStyle;rounded=1;orthogonalLoop=1;jettySize=auto;html=1;exitX=0.5;exitY=1;exitDx=0;exitDy=0;exitPerimeter=0;entryX=0.5;entryY=0;entryDx=0;entryDy=0;strokeWidth=3;fontSize=12;" edge="1" parent="1" source="LHCKISDICAmvEoplOuZN-34" target="LHCKISDICAmvEoplOuZN-7">
          <mxGeometry relative="1" as="geometry" />
        </mxCell>
        <mxCell id="LHCKISDICAmvEoplOuZN-34" value="&lt;span style=&quot;color: rgb(66, 119, 187);&quot;&gt;&lt;b&gt;labeladmin-core&lt;/b&gt;&lt;/span&gt;" style="points=[[0,0,0],[0.25,0,0],[0.5,0,0],[0.75,0,0],[1,0,0],[0,1,0],[0.25,1,0],[0.5,1,0],[0.75,1,0],[1,1,0],[0,0.25,0],[0,0.5,0],[0,0.75,0],[1,0.25,0],[1,0.5,0],[1,0.75,0]];outlineConnect=0;fontColor=#232F3E;gradientColor=#F78E04;gradientDirection=north;fillColor=#D05C17;strokeColor=#ffffff;dashed=0;verticalLabelPosition=bottom;verticalAlign=top;align=center;html=1;fontSize=12;fontStyle=0;aspect=fixed;shape=mxgraph.aws4.resourceIcon;resIcon=mxgraph.aws4.ecs;labelBackgroundColor=#ffffff;" vertex="1" parent="1">
          <mxGeometry x="960" y="992.3" width="80" height="80" as="geometry" />
        </mxCell>
        <mxCell id="LHCKISDICAmvEoplOuZN-35" style="edgeStyle=orthogonalEdgeStyle;rounded=1;orthogonalLoop=1;jettySize=auto;html=1;exitX=0.5;exitY=1;exitDx=0;exitDy=0;exitPerimeter=0;entryX=0.5;entryY=0;entryDx=0;entryDy=0;strokeWidth=3;fontSize=12;" edge="1" parent="1" source="LHCKISDICAmvEoplOuZN-36" target="LHCKISDICAmvEoplOuZN-7">
          <mxGeometry relative="1" as="geometry" />
        </mxCell>
        <mxCell id="LHCKISDICAmvEoplOuZN-36" value="&lt;span style=&quot;color: rgb(66, 119, 187);&quot;&gt;&lt;b&gt;crowd-template-core&lt;/b&gt;&lt;/span&gt;" style="points=[[0,0,0],[0.25,0,0],[0.5,0,0],[0.75,0,0],[1,0,0],[0,1,0],[0.25,1,0],[0.5,1,0],[0.75,1,0],[1,1,0],[0,0.25,0],[0,0.5,0],[0,0.75,0],[1,0.25,0],[1,0.5,0],[1,0.75,0]];outlineConnect=0;fontColor=#232F3E;gradientColor=#F78E04;gradientDirection=north;fillColor=#D05C17;strokeColor=#ffffff;dashed=0;verticalLabelPosition=bottom;verticalAlign=top;align=center;html=1;fontSize=12;fontStyle=0;aspect=fixed;shape=mxgraph.aws4.resourceIcon;resIcon=mxgraph.aws4.ecs;labelBackgroundColor=#ffffff;" vertex="1" parent="1">
          <mxGeometry x="1150" y="992.3" width="80" height="80" as="geometry" />
        </mxCell>
        <mxCell id="LHCKISDICAmvEoplOuZN-37" style="edgeStyle=orthogonalEdgeStyle;rounded=1;orthogonalLoop=1;jettySize=auto;html=1;exitX=0.5;exitY=1;exitDx=0;exitDy=0;exitPerimeter=0;strokeWidth=3;fontSize=13;textOpacity=0;" edge="1" parent="1" source="LHCKISDICAmvEoplOuZN-40" target="LHCKISDICAmvEoplOuZN-16">
          <mxGeometry relative="1" as="geometry" />
        </mxCell>
        <mxCell id="LHCKISDICAmvEoplOuZN-38" style="edgeStyle=orthogonalEdgeStyle;rounded=1;orthogonalLoop=1;jettySize=auto;html=1;entryX=0.5;entryY=0;entryDx=0;entryDy=0;entryPerimeter=0;strokeWidth=3;fontSize=13;" edge="1" parent="1" source="LHCKISDICAmvEoplOuZN-40" target="LHCKISDICAmvEoplOuZN-21">
          <mxGeometry relative="1" as="geometry" />
        </mxCell>
        <mxCell id="LHCKISDICAmvEoplOuZN-39" style="edgeStyle=orthogonalEdgeStyle;rounded=1;orthogonalLoop=1;jettySize=auto;html=1;exitX=0.5;exitY=1;exitDx=0;exitDy=0;exitPerimeter=0;strokeWidth=3;fontSize=13;" edge="1" parent="1" source="LHCKISDICAmvEoplOuZN-40" target="LHCKISDICAmvEoplOuZN-24">
          <mxGeometry relative="1" as="geometry" />
        </mxCell>
        <mxCell id="LHCKISDICAmvEoplOuZN-40" value="gateway网关层" style="points=[[0,0,0],[0.25,0,0],[0.5,0,0],[0.75,0,0],[1,0,0],[0,1,0],[0.25,1,0],[0.5,1,0],[0.75,1,0],[1,1,0],[0,0.25,0],[0,0.5,0],[0,0.75,0],[1,0.25,0],[1,0.5,0],[1,0.75,0]];outlineConnect=0;fontColor=#232F3E;gradientColor=#945DF2;gradientDirection=north;fillColor=#5A30B5;strokeColor=#ffffff;dashed=0;verticalLabelPosition=bottom;verticalAlign=top;align=center;html=1;fontSize=12;fontStyle=1;aspect=fixed;shape=mxgraph.aws4.resourceIcon;resIcon=mxgraph.aws4.api_gateway;labelBorderColor=none;labelBackgroundColor=#ffffff;" vertex="1" parent="1">
          <mxGeometry x="741" y="690" width="80" height="80" as="geometry" />
        </mxCell>
        <mxCell id="LHCKISDICAmvEoplOuZN-41" value="Redis" style="shape=image;html=1;verticalAlign=top;verticalLabelPosition=bottom;labelBackgroundColor=none;imageAspect=0;aspect=fixed;image=https://cdn4.iconfinder.com/data/icons/redis-2/1451/Untitled-2-128.png;fontSize=12;fontStyle=1" vertex="1" parent="1">
          <mxGeometry x="284" y="1164" width="80" height="80" as="geometry" />
        </mxCell>
        <mxCell id="LHCKISDICAmvEoplOuZN-42" value="Redis" style="shape=image;html=1;verticalAlign=top;verticalLabelPosition=bottom;labelBackgroundColor=none;imageAspect=0;aspect=fixed;image=https://cdn4.iconfinder.com/data/icons/redis-2/1451/Untitled-2-128.png;fontSize=12;fontStyle=1" vertex="1" parent="1">
          <mxGeometry x="424" y="1165" width="80" height="80" as="geometry" />
        </mxCell>
        <mxCell id="LHCKISDICAmvEoplOuZN-43" value="&lt;b&gt;MySQL&lt;/b&gt;" style="shape=image;html=1;verticalAlign=top;verticalLabelPosition=bottom;labelBackgroundColor=none;imageAspect=0;aspect=fixed;image=https://cdn4.iconfinder.com/data/icons/logos-3/181/MySQL-128.png;fontSize=12;" vertex="1" parent="1">
          <mxGeometry x="608" y="1164.5" width="80" height="80" as="geometry" />
        </mxCell>
        <mxCell id="LHCKISDICAmvEoplOuZN-44" value="&lt;b&gt;MySQL&lt;/b&gt;" style="shape=image;html=1;verticalAlign=top;verticalLabelPosition=bottom;labelBackgroundColor=none;imageAspect=0;aspect=fixed;image=https://cdn4.iconfinder.com/data/icons/logos-3/181/MySQL-128.png;fontSize=12;" vertex="1" parent="1">
          <mxGeometry x="737" y="1164.5" width="80" height="80" as="geometry" />
        </mxCell>
        <mxCell id="LHCKISDICAmvEoplOuZN-45" value="&lt;b&gt;MongoDB&lt;/b&gt;" style="dashed=0;outlineConnect=0;html=1;align=center;labelPosition=center;verticalLabelPosition=bottom;verticalAlign=top;shape=mxgraph.webicons.mongodb;gradientColor=#DFDEDE;labelBackgroundColor=none;fontSize=12;" vertex="1" parent="1">
          <mxGeometry x="920" y="1162" width="80" height="80" as="geometry" />
        </mxCell>
        <mxCell id="LHCKISDICAmvEoplOuZN-46" value="&lt;b&gt;MongoDB&lt;/b&gt;" style="dashed=0;outlineConnect=0;html=1;align=center;labelPosition=center;verticalLabelPosition=bottom;verticalAlign=top;shape=mxgraph.webicons.mongodb;gradientColor=#DFDEDE;labelBackgroundColor=none;fontSize=12;" vertex="1" parent="1">
          <mxGeometry x="1050" y="1162" width="80" height="80" as="geometry" />
        </mxCell>
        <mxCell id="LHCKISDICAmvEoplOuZN-47" value="&lt;b style=&quot;font-size: 12px;&quot;&gt;ElasticSearch&lt;/b&gt;" style="outlineConnect=0;dashed=0;verticalLabelPosition=bottom;verticalAlign=top;align=center;html=1;shape=mxgraph.aws3.elasticsearch_service;fillColor=#F58534;gradientColor=none;labelBackgroundColor=none;fontSize=12;" vertex="1" parent="1">
          <mxGeometry x="1240" y="1157.5" width="67.5" height="81" as="geometry" />
        </mxCell>
        <mxCell id="LHCKISDICAmvEoplOuZN-48" value="&lt;b&gt;ElasticSearch&lt;/b&gt;" style="outlineConnect=0;dashed=0;verticalLabelPosition=bottom;verticalAlign=top;align=center;html=1;shape=mxgraph.aws3.elasticsearch_service;fillColor=#F58534;gradientColor=none;labelBackgroundColor=none;fontSize=12;" vertex="1" parent="1">
          <mxGeometry x="1362.5" y="1156" width="67.5" height="81" as="geometry" />
        </mxCell>
        <mxCell id="LHCKISDICAmvEoplOuZN-49" value="" style="aspect=fixed;perimeter=ellipsePerimeter;html=1;align=center;shadow=0;dashed=0;fontColor=#4277BB;labelBackgroundColor=#ffffff;fontSize=12;spacingTop=3;image;image=img/lib/ibm/infrastructure/channels.svg;" vertex="1" parent="1">
          <mxGeometry x="1510" y="120" width="80" height="80" as="geometry" />
        </mxCell>
        <mxCell id="LHCKISDICAmvEoplOuZN-50" value="前端服务" style="text;html=1;strokeColor=none;fillColor=none;align=center;verticalAlign=middle;whiteSpace=wrap;rounded=0;dashed=1;labelBackgroundColor=#ffffff;fontSize=15;fontStyle=1" vertex="1" parent="1">
          <mxGeometry x="1609" y="152" width="91" height="20" as="geometry" />
        </mxCell>
        <mxCell id="LHCKISDICAmvEoplOuZN-51" value="" style="points=[[0,0,0],[0.25,0,0],[0.5,0,0],[0.75,0,0],[1,0,0],[0,1,0],[0.25,1,0],[0.5,1,0],[0.75,1,0],[1,1,0],[0,0.25,0],[0,0.5,0],[0,0.75,0],[1,0.25,0],[1,0.5,0],[1,0.75,0]];outlineConnect=0;fontColor=#232F3E;gradientColor=#F78E04;gradientDirection=north;fillColor=#D05C17;strokeColor=#ffffff;dashed=0;verticalLabelPosition=bottom;verticalAlign=top;align=center;html=1;fontSize=12;fontStyle=0;aspect=fixed;shape=mxgraph.aws4.resourceIcon;resIcon=mxgraph.aws4.ecs;labelBackgroundColor=#ffffff;" vertex="1" parent="1">
          <mxGeometry x="1510" y="220" width="80" height="80" as="geometry" />
        </mxCell>
        <mxCell id="LHCKISDICAmvEoplOuZN-52" value="JAVA服务" style="text;html=1;strokeColor=none;fillColor=none;align=center;verticalAlign=middle;whiteSpace=wrap;rounded=0;dashed=1;labelBackgroundColor=#ffffff;fontSize=15;fontStyle=1" vertex="1" parent="1">
          <mxGeometry x="1609" y="250" width="91" height="20" as="geometry" />
        </mxCell>
        <mxCell id="LHCKISDICAmvEoplOuZN-53" style="edgeStyle=orthogonalEdgeStyle;rounded=1;orthogonalLoop=1;jettySize=auto;html=1;strokeWidth=3;fontSize=13;" edge="1" parent="1">
          <mxGeometry relative="1" as="geometry">
            <mxPoint x="1500" y="699" as="sourcePoint" />
            <mxPoint x="1580" y="699" as="targetPoint" />
          </mxGeometry>
        </mxCell>
        <mxCell id="LHCKISDICAmvEoplOuZN-54" value="服务依赖关系" style="text;html=1;strokeColor=none;fillColor=none;align=center;verticalAlign=middle;whiteSpace=wrap;rounded=0;dashed=1;labelBackgroundColor=#ffffff;fontSize=15;fontStyle=1" vertex="1" parent="1">
          <mxGeometry x="1599" y="689" width="101" height="20" as="geometry" />
        </mxCell>
        <mxCell id="LHCKISDICAmvEoplOuZN-55" value="&lt;span style=&quot;font-size: 12px&quot;&gt;dubbo&lt;/span&gt;" style="fillColor=#28A8E0;verticalLabelPosition=bottom;html=1;strokeColor=#ffffff;verticalAlign=top;align=center;points=[[0.145,0.145,0],[0.5,0,0],[0.855,0.145,0],[1,0.5,0],[0.855,0.855,0],[0.5,1,0],[0.145,0.855,0],[0,0.5,0]];pointerEvents=1;shape=mxgraph.cisco_safe.compositeIcon;bgIcon=ellipse;resIcon=mxgraph.cisco_safe.capability.distributed_denial_of_service_protection;dashed=1;labelBackgroundColor=none;fontSize=12;fontStyle=1" vertex="1" parent="1">
          <mxGeometry x="95" y="959" width="80" height="80" as="geometry" />
        </mxCell>
        <mxCell id="LHCKISDICAmvEoplOuZN-56" value="&lt;b&gt;nacos&lt;/b&gt;" style="outlineConnect=0;dashed=0;verticalLabelPosition=bottom;verticalAlign=top;align=center;html=1;shape=mxgraph.aws3.emr_cluster;fillColor=#F58534;gradientColor=none;labelBackgroundColor=none;fontSize=12;" vertex="1" parent="1">
          <mxGeometry x="195" y="959" width="80" height="80" as="geometry" />
        </mxCell>
        <mxCell id="LHCKISDICAmvEoplOuZN-57" value="微服务通信" style="text;html=1;strokeColor=none;fillColor=none;align=center;verticalAlign=middle;whiteSpace=wrap;rounded=0;dashed=1;labelBackgroundColor=none;fontSize=14;fontStyle=1" vertex="1" parent="1">
          <mxGeometry x="145" y="929" width="80" height="20" as="geometry" />
        </mxCell>
        <mxCell id="LHCKISDICAmvEoplOuZN-61" value="…" style="text;html=1;strokeColor=none;fillColor=none;align=center;verticalAlign=middle;whiteSpace=wrap;rounded=0;dashed=1;labelBackgroundColor=none;fontSize=25;fontStyle=1" vertex="1" parent="1">
          <mxGeometry x="1315" y="1190.5" width="40" height="20" as="geometry" />
        </mxCell>
        <mxCell id="LHCKISDICAmvEoplOuZN-62" value="…" style="text;html=1;strokeColor=none;fillColor=none;align=center;verticalAlign=middle;whiteSpace=wrap;rounded=0;dashed=1;labelBackgroundColor=none;fontSize=25;fontStyle=1" vertex="1" parent="1">
          <mxGeometry x="1005" y="1192" width="40" height="20" as="geometry" />
        </mxCell>
        <mxCell id="LHCKISDICAmvEoplOuZN-63" value="…" style="text;html=1;strokeColor=none;fillColor=none;align=center;verticalAlign=middle;whiteSpace=wrap;rounded=0;dashed=1;labelBackgroundColor=none;fontSize=25;fontStyle=1" vertex="1" parent="1">
          <mxGeometry x="695" y="1193" width="40" height="20" as="geometry" />
        </mxCell>
        <mxCell id="LHCKISDICAmvEoplOuZN-64" value="…" style="text;html=1;strokeColor=none;fillColor=none;align=center;verticalAlign=middle;whiteSpace=wrap;rounded=0;dashed=1;labelBackgroundColor=none;fontSize=25;fontStyle=1" vertex="1" parent="1">
          <mxGeometry x="371" y="1190" width="40" height="20" as="geometry" />
        </mxCell>
        <mxCell id="LHCKISDICAmvEoplOuZN-65" value="" style="verticalLabelPosition=bottom;aspect=fixed;html=1;verticalAlign=top;strokeColor=none;align=center;outlineConnect=0;shape=mxgraph.citrix.file_server;dashed=1;labelBackgroundColor=none;fillColor=#CCFFE6;fontSize=25;" vertex="1" parent="1">
          <mxGeometry x="1711" y="929" width="65.85" height="90" as="geometry" />
        </mxCell>
        <mxCell id="LHCKISDICAmvEoplOuZN-66" value="" style="verticalLabelPosition=bottom;aspect=fixed;html=1;verticalAlign=top;strokeColor=none;align=center;outlineConnect=0;shape=mxgraph.citrix.file_server;dashed=1;labelBackgroundColor=none;fillColor=#CCFFE6;fontSize=25;" vertex="1" parent="1">
          <mxGeometry x="1820" y="929" width="65.85" height="90" as="geometry" />
        </mxCell>
        <mxCell id="LHCKISDICAmvEoplOuZN-67" value="文件服务Ceph / NAS / OSS / S3" style="text;html=1;strokeColor=none;fillColor=none;align=center;verticalAlign=middle;whiteSpace=wrap;rounded=0;dashed=1;labelBackgroundColor=none;fontSize=14;fontStyle=1" vertex="1" parent="1">
          <mxGeometry x="1685" y="904" width="220" height="20" as="geometry" />
        </mxCell>
        <mxCell id="LHCKISDICAmvEoplOuZN-68" value="" style="shape=flexArrow;endArrow=classic;startArrow=classic;html=1;strokeWidth=1;fontSize=14;shadow=0;sketch=0;fillColor=#CCFFE6;" edge="1" parent="1">
          <mxGeometry width="50" height="50" relative="1" as="geometry">
            <mxPoint x="1230" y="964.5" as="sourcePoint" />
            <mxPoint x="1300" y="964.5" as="targetPoint" />
          </mxGeometry>
        </mxCell>
        <mxCell id="LHCKISDICAmvEoplOuZN-69" value="" style="shape=flexArrow;endArrow=classic;startArrow=classic;html=1;strokeWidth=1;fontSize=14;shadow=0;sketch=0;fillColor=#CCFFE6;" edge="1" parent="1">
          <mxGeometry width="50" height="50" relative="1" as="geometry">
            <mxPoint x="1583" y="963.5" as="sourcePoint" />
            <mxPoint x="1653" y="963.5" as="targetPoint" />
          </mxGeometry>
        </mxCell>
        <mxCell id="LHCKISDICAmvEoplOuZN-139" value="" style="group" vertex="1" connectable="0" parent="1">
          <mxGeometry x="1320" y="899" width="250" height="130" as="geometry" />
        </mxCell>
        <mxCell id="LHCKISDICAmvEoplOuZN-2" value="" style="rounded=1;whiteSpace=wrap;html=1;labelBackgroundColor=#ffffff;fontSize=12;dashed=1;fillColor=#CCFFE6;" vertex="1" parent="LHCKISDICAmvEoplOuZN-139">
          <mxGeometry width="250" height="130" as="geometry" />
        </mxCell>
        <mxCell id="LHCKISDICAmvEoplOuZN-58" value="nginx" style="shape=image;html=1;verticalAlign=top;verticalLabelPosition=bottom;labelBackgroundColor=none;imageAspect=0;aspect=fixed;image=https://cdn4.iconfinder.com/data/icons/logos-brands-5/24/nginx-128.png;dashed=1;fillColor=#CCFFE6;fontSize=12;fontStyle=1" vertex="1" parent="LHCKISDICAmvEoplOuZN-139">
          <mxGeometry x="25" y="20.299999999999955" width="80" height="80" as="geometry" />
        </mxCell>
        <mxCell id="LHCKISDICAmvEoplOuZN-59" value="nginx" style="shape=image;html=1;verticalAlign=top;verticalLabelPosition=bottom;labelBackgroundColor=none;imageAspect=0;aspect=fixed;image=https://cdn4.iconfinder.com/data/icons/logos-brands-5/24/nginx-128.png;dashed=1;fillColor=#CCFFE6;fontSize=12;fontStyle=1" vertex="1" parent="LHCKISDICAmvEoplOuZN-139">
          <mxGeometry x="150" y="23" width="80" height="80" as="geometry" />
        </mxCell>
        <mxCell id="LHCKISDICAmvEoplOuZN-60" value="…" style="text;html=1;strokeColor=none;fillColor=none;align=center;verticalAlign=middle;whiteSpace=wrap;rounded=0;dashed=1;labelBackgroundColor=none;fontSize=25;fontStyle=1" vertex="1" parent="LHCKISDICAmvEoplOuZN-139">
          <mxGeometry x="107" y="46" width="40" height="20" as="geometry" />
        </mxCell>
        <mxCell id="LHCKISDICAmvEoplOuZN-140" value="" style="group" vertex="1" connectable="0" parent="1">
          <mxGeometry x="665" y="235" width="250" height="130" as="geometry" />
        </mxCell>
        <mxCell id="LHCKISDICAmvEoplOuZN-141" value="" style="rounded=1;whiteSpace=wrap;html=1;labelBackgroundColor=#ffffff;fontSize=12;dashed=1;fillColor=#CCFFE6;" vertex="1" parent="LHCKISDICAmvEoplOuZN-140">
          <mxGeometry width="250" height="130" as="geometry" />
        </mxCell>
        <mxCell id="LHCKISDICAmvEoplOuZN-142" value="nginx" style="shape=image;html=1;verticalAlign=top;verticalLabelPosition=bottom;labelBackgroundColor=none;imageAspect=0;aspect=fixed;image=https://cdn4.iconfinder.com/data/icons/logos-brands-5/24/nginx-128.png;dashed=1;fillColor=#CCFFE6;fontSize=12;fontStyle=1" vertex="1" parent="LHCKISDICAmvEoplOuZN-140">
          <mxGeometry x="25" y="20.299999999999955" width="80" height="80" as="geometry" />
        </mxCell>
        <mxCell id="LHCKISDICAmvEoplOuZN-143" value="nginx" style="shape=image;html=1;verticalAlign=top;verticalLabelPosition=bottom;labelBackgroundColor=none;imageAspect=0;aspect=fixed;image=https://cdn4.iconfinder.com/data/icons/logos-brands-5/24/nginx-128.png;dashed=1;fillColor=#CCFFE6;fontSize=12;fontStyle=1" vertex="1" parent="LHCKISDICAmvEoplOuZN-140">
          <mxGeometry x="150" y="23" width="80" height="80" as="geometry" />
        </mxCell>
        <mxCell id="LHCKISDICAmvEoplOuZN-144" value="…" style="text;html=1;strokeColor=none;fillColor=none;align=center;verticalAlign=middle;whiteSpace=wrap;rounded=0;dashed=1;labelBackgroundColor=none;fontSize=25;fontStyle=1" vertex="1" parent="LHCKISDICAmvEoplOuZN-140">
          <mxGeometry x="107" y="46" width="40" height="20" as="geometry" />
        </mxCell>
        <mxCell id="LHCKISDICAmvEoplOuZN-152" value="" style="group" vertex="1" connectable="0" parent="1">
          <mxGeometry x="665" y="440" width="250" height="130" as="geometry" />
        </mxCell>
        <mxCell id="LHCKISDICAmvEoplOuZN-153" value="" style="rounded=1;whiteSpace=wrap;html=1;labelBackgroundColor=#ffffff;fontSize=12;dashed=1;fillColor=#CCFFE6;" vertex="1" parent="LHCKISDICAmvEoplOuZN-152">
          <mxGeometry width="250" height="130" as="geometry" />
        </mxCell>
        <mxCell id="LHCKISDICAmvEoplOuZN-156" value="…" style="text;html=1;strokeColor=none;fillColor=none;align=center;verticalAlign=middle;whiteSpace=wrap;rounded=0;dashed=1;labelBackgroundColor=none;fontSize=25;fontStyle=1" vertex="1" parent="LHCKISDICAmvEoplOuZN-152">
          <mxGeometry x="107" y="46" width="40" height="20" as="geometry" />
        </mxCell>
        <mxCell id="LHCKISDICAmvEoplOuZN-158" value="&lt;b&gt;&lt;font color=&quot;#000000&quot;&gt;前端服务&lt;/font&gt;&lt;/b&gt;" style="aspect=fixed;perimeter=ellipsePerimeter;html=1;align=center;shadow=0;dashed=0;fontColor=#4277BB;labelBackgroundColor=none;fontSize=12;spacingTop=3;image;image=img/lib/ibm/infrastructure/channels.svg;" vertex="1" parent="LHCKISDICAmvEoplOuZN-152">
          <mxGeometry x="24" y="16" width="80" height="80" as="geometry" />
        </mxCell>
        <mxCell id="LHCKISDICAmvEoplOuZN-157" value="&lt;b&gt;&lt;font color=&quot;#000000&quot;&gt;前端服务&lt;/font&gt;&lt;/b&gt;" style="aspect=fixed;perimeter=ellipsePerimeter;html=1;align=center;shadow=0;dashed=0;fontColor=#4277BB;labelBackgroundColor=#ffffff;fontSize=12;spacingTop=3;image;image=img/lib/ibm/infrastructure/channels.svg;" vertex="1" parent="LHCKISDICAmvEoplOuZN-152">
          <mxGeometry x="149" y="16" width="80" height="80" as="geometry" />
        </mxCell>
        <mxCell id="LHCKISDICAmvEoplOuZN-160" value="" style="group" vertex="1" connectable="0" parent="1">
          <mxGeometry x="1070" y="440" width="250" height="130" as="geometry" />
        </mxCell>
        <mxCell id="LHCKISDICAmvEoplOuZN-161" value="" style="rounded=1;whiteSpace=wrap;html=1;labelBackgroundColor=#ffffff;fontSize=12;dashed=1;fillColor=#CCFFE6;" vertex="1" parent="LHCKISDICAmvEoplOuZN-160">
          <mxGeometry width="250" height="130" as="geometry" />
        </mxCell>
        <mxCell id="LHCKISDICAmvEoplOuZN-162" value="…" style="text;html=1;strokeColor=none;fillColor=none;align=center;verticalAlign=middle;whiteSpace=wrap;rounded=0;dashed=1;labelBackgroundColor=none;fontSize=25;fontStyle=1" vertex="1" parent="LHCKISDICAmvEoplOuZN-160">
          <mxGeometry x="107" y="46" width="40" height="20" as="geometry" />
        </mxCell>
        <mxCell id="LHCKISDICAmvEoplOuZN-163" value="&lt;b&gt;前端服务&lt;/b&gt;" style="aspect=fixed;perimeter=ellipsePerimeter;html=1;align=center;shadow=0;dashed=0;fontColor=#4277BB;labelBackgroundColor=#ffffff;fontSize=12;spacingTop=3;image;image=img/lib/ibm/infrastructure/channels.svg;" vertex="1" parent="LHCKISDICAmvEoplOuZN-160">
          <mxGeometry x="24" y="16" width="80" height="80" as="geometry" />
        </mxCell>
        <mxCell id="LHCKISDICAmvEoplOuZN-164" value="&lt;b&gt;前端服务&lt;/b&gt;" style="aspect=fixed;perimeter=ellipsePerimeter;html=1;align=center;shadow=0;dashed=0;fontColor=#4277BB;labelBackgroundColor=#ffffff;fontSize=12;spacingTop=3;image;image=img/lib/ibm/infrastructure/channels.svg;" vertex="1" parent="LHCKISDICAmvEoplOuZN-160">
          <mxGeometry x="149" y="16" width="80" height="80" as="geometry" />
        </mxCell>
        <mxCell id="LHCKISDICAmvEoplOuZN-165" style="edgeStyle=orthogonalEdgeStyle;rounded=1;orthogonalLoop=1;jettySize=auto;html=1;strokeWidth=3;entryX=0.5;entryY=0;entryDx=0;entryDy=0;exitX=0.5;exitY=1;exitDx=0;exitDy=0;" edge="1" parent="1" source="LHCKISDICAmvEoplOuZN-141" target="LHCKISDICAmvEoplOuZN-153">
          <mxGeometry relative="1" as="geometry">
            <mxPoint x="800" y="170.29999999999995" as="sourcePoint" />
            <mxPoint x="800" y="245" as="targetPoint" />
          </mxGeometry>
        </mxCell>
        <mxCell id="LHCKISDICAmvEoplOuZN-147" value="&lt;b&gt;keepalived+nginx&lt;/b&gt;" style="text;html=1;strokeColor=none;fillColor=none;align=center;verticalAlign=middle;whiteSpace=wrap;rounded=0;" vertex="1" parent="1">
          <mxGeometry x="790" y="368" width="120" height="20" as="geometry" />
        </mxCell>
      </root>
    </mxGraphModel>
  </diagram>
</mxfile>
